<svg xmlns="http://www.w3.org/2000/svg" width="256" height="256" viewBox="0 0 100 100"><rect width="100" height="100" rx="20" fill="#40acac"></rect><path fill="#fff" d="M12.22 65.20L12.22 65.20Q11.22 65.20 10.63 64.60Q10.02 64.00 10.02 63.00L10.02 63.00L10.02 37.00Q10.02 36.00 10.63 35.40Q11.22 34.80 12.22 34.80L12.22 34.80L28.82 34.80Q28.98 35.05 29.13 35.47Q29.28 35.90 29.28 36.40L29.28 36.40Q29.28 37.25 28.88 37.75Q28.48 38.25 27.73 38.25L27.73 38.25L14.07 38.25L14.07 47.90L27.28 47.90Q27.43 48.15 27.57 48.57Q27.73 49.00 27.73 49.50L27.73 49.50Q27.73 50.35 27.32 50.82Q26.93 51.30 26.18 51.30L26.18 51.30L14.07 51.30L14.07 61.80L29.07 61.80Q29.23 62.05 29.38 62.45Q29.53 62.85 29.53 63.40L29.53 63.40Q29.53 64.25 29.13 64.72Q28.73 65.20 27.98 65.20L27.98 65.20L12.22 65.20ZM44.98 62.45L44.98 62.45Q48.33 62.45 50.05 60.92Q51.78 59.40 51.78 57.00L51.78 57.00Q51.78 54.90 50.45 53.60Q49.13 52.30 46.27 51.45L46.27 51.45L41.92 50.15Q38.73 49.20 36.90 47.35Q35.08 45.50 35.08 42.35L35.08 42.35Q35.08 40.45 35.80 38.92Q36.52 37.40 37.88 36.35Q39.23 35.30 41.10 34.72Q42.98 34.15 45.33 34.15L45.33 34.15Q47.33 34.15 49.05 34.47Q50.78 34.80 52.05 35.37Q53.33 35.95 54.03 36.65Q54.73 37.35 54.73 38.10L54.73 38.10Q54.73 38.80 54.38 39.30Q54.03 39.80 53.48 40.10L53.48 40.10Q52.17 39.10 50.10 38.35Q48.02 37.60 45.48 37.60L45.48 37.60Q42.52 37.60 40.85 38.85Q39.17 40.10 39.17 42.35L39.17 42.35Q39.17 44.10 40.38 45.20Q41.58 46.30 44.38 47.10L44.38 47.10L47.42 48.00Q51.38 49.15 53.65 51.22Q55.92 53.30 55.92 57.00L55.92 57.00Q55.92 60.95 53.08 63.40Q50.23 65.85 44.98 65.85L44.98 65.85Q42.67 65.85 40.80 65.45Q38.92 65.05 37.60 64.40Q36.27 63.75 35.55 62.97Q34.83 62.20 34.83 61.45L34.83 61.45Q34.83 60.60 35.35 60.02Q35.88 59.45 36.58 59.20L36.58 59.20Q37.13 59.75 37.92 60.32Q38.73 60.90 39.77 61.37Q40.83 61.85 42.13 62.15Q43.42 62.45 44.98 62.45ZM89.98 50.00L89.98 50.00Q89.98 53.90 88.88 56.87Q87.78 59.85 85.83 61.82Q83.88 63.80 81.23 64.82Q78.58 65.85 75.48 65.85L75.48 65.85Q72.38 65.85 69.73 64.82Q67.08 63.80 65.13 61.82Q63.18 59.85 62.08 56.87Q60.98 53.90 60.98 50.00L60.98 50.00Q60.98 46.10 62.10 43.15Q63.23 40.20 65.18 38.20Q67.13 36.20 69.78 35.17Q72.43 34.15 75.48 34.15L75.48 34.15Q78.53 34.15 81.18 35.17Q83.83 36.20 85.78 38.20Q87.73 40.20 88.85 43.15Q89.98 46.10 89.98 50.00ZM85.83 50.00L85.83 50.00Q85.83 44.00 83 40.80Q80.18 37.60 75.48 37.60L75.48 37.60Q73.13 37.60 71.23 38.42Q69.33 39.25 67.98 40.82Q66.63 42.40 65.90 44.70Q65.18 47.00 65.18 50.00L65.18 50.00Q65.18 56.00 67.98 59.20Q70.78 62.40 75.48 62.40L75.48 62.40Q80.23 62.40 83.03 59.20Q85.83 56.00 85.83 50.00Z"></path></svg>